# xmcd
#
# Track frame offsets:
#	150
#	24158
#	47410
#	70783
#	93799
#	114868
#	134134
#	155321
#	177753
#	203802
#
# Disc length: 3041 seconds
#
# Revision: 1
# Processed by: cddbd v1.5.2PL0 Copyright (c) Steve Scherf et al.
# Submitted via: EZCDAudioConverter 8.0.2.1
#
DISCID=740bdf0a
DTITLE=Như Quỳnh, Tường Nguyên - Điều Chưa Dám nói
DYEAR=1999
DGENRE=Miscellaneous
TTITLE0=Tường Nguyên - Mất nhau rồi
TTITLE1=Như Quỳnh, Tường Nguyên - Vì trong nghịch cảnh
TTITLE2=Tường Nguyên - Điều Chưa Dám nói
TTITLE3=Như Quỳnh, Tường Nguyên - Đừng trách diêu bông
TTITLE4=Tường Nguyên - Khuya nay anh đi rồi
TTITLE5=Tường Nguyên - Sao em nỡ vô tình
TTITLE6=Như Quỳnh, Tường Nguyên - Tình nhỏ mau quên
TTITLE7=Tường Nguyên - Bội bạc
TTITLE8=Như Quỳnh, Tường Nguyên - Chim sáo ngày xưa
TTITLE9=Tường Nguyên - Tình xưa vụng dại
EXTD=
EXTT0=
EXTT1=
EXTT2=
EXTT3=
EXTT4=
EXTT5=
EXTT6=
EXTT7=
EXTT8=
EXTT9=
PLAYORDER=
